<svg xmlns="http://www.w3.org/2000/svg" viewBox="0 0 514 514"><defs><style>.cls-1{isolation:isolate;}.cls-2{fill:#fff;}.cls-3,.cls-5{fill:#e7205e;}.cls-3{opacity:0.1;mix-blend-mode:multiply;}.cls-4{fill:#ed6d96;}</style></defs><title>Miljenko Neue v1.1</title><g class="cls-1"><g id="Layer_2" data-name="Layer 2"><path class="cls-2" d="M513,257a254.79,254.79,0,0,0-42.75-141.66V92H452.71A256,256,0,0,0,61.29,92H43.75v23.35a256.07,256.07,0,0,0,0,283.32V513h426.5V398.66A254.79,254.79,0,0,0,513,257Z"/><circle class="cls-3" cx="257" cy="257" r="256"/><rect class="cls-3" x="43.75" y="91.99" width="426.5" height="421.01"/><path class="cls-4" d="M194.57,374.18l0.28,0.17a16.07,16.07,0,0,0,22.06-5.47l29.48-48.77a16.07,16.07,0,0,0-5.47-22.06l-0.28-.17a16.07,16.07,0,0,0-22.06,5.47L189.1,352.12A16.07,16.07,0,0,0,194.57,374.18Z"/><path class="cls-4" d="M192.92,377.32l-0.1-.06h0l-13.9-8.42-33.3,55.08A16.07,16.07,0,0,0,151.09,446l0.28,0.17a16.07,16.07,0,0,0,22.06-5.47l25-41.31A16.07,16.07,0,0,0,192.92,377.32Z"/><path class="cls-4" d="M149.45,449.14l-0.1-.06h0l-13.9-8.42L121.8,463.29a16.07,16.07,0,0,0,5.47,22.06l0.28,0.17A16.07,16.07,0,0,0,149.6,480l5.31-8.85A16.07,16.07,0,0,0,149.45,449.14Z"/><path class="cls-4" d="M319.35,374l0.28-.17a16.07,16.07,0,0,0,5.25-22.11L295,303.22A16.07,16.07,0,0,0,272.93,298l-0.28.17a16.07,16.07,0,0,0-5.25,22.11l29.83,48.55A16.07,16.07,0,0,0,319.35,374Z"/><path class="cls-4" d="M321.39,377l-0.1.06h0l-13.85,8.5,33.69,54.84a16.07,16.07,0,0,0,22.11,5.25l0.28-.17a16.07,16.07,0,0,0,5.25-22.11L343.5,382.2A16.07,16.07,0,0,0,321.39,377Z"/><path class="cls-4" d="M365.3,448.51l-0.1.06h0l-13.85,8.5,13.85,22.5a16.07,16.07,0,0,0,22.11,5.25l0.28-.17a16.07,16.07,0,0,0,5.25-22.11l-5.43-8.78A16.07,16.07,0,0,0,365.3,448.51Z"/><path class="cls-4" d="M43.75,174.55v-0.32c0-4.16,0-16.09,0-16.09h28.5A16.07,16.07,0,0,1,88.33,174.2v0.32A16.07,16.07,0,0,1,72.27,190.6H59.83A16.07,16.07,0,0,1,43.75,174.55Z"/><path class="cls-4" d="M91.88,174.55V158.14h37a16.07,16.07,0,0,1,16.08,16.06v0.32a16.07,16.07,0,0,1-16.06,16.08H108A16.07,16.07,0,0,1,91.88,174.55Z"/><path class="cls-4" d="M148.48,174.55V158.14h41.23a16.07,16.07,0,0,1,16.08,16.06v0.32a16.07,16.07,0,0,1-16.06,16.08H164.56A16.07,16.07,0,0,1,148.48,174.55Z"/><path class="cls-4" d="M425.67,174.48v-0.32c0-4.16,0-16.09,0-16.09h28.5a16.07,16.07,0,0,1,16.08,16.06v0.32a16.07,16.07,0,0,1-16.06,16.08H441.75A16.07,16.07,0,0,1,425.67,174.48Z"/><path class="cls-4" d="M369.21,174.48V158.07h37a16.07,16.07,0,0,1,16.08,16.06v0.32a16.07,16.07,0,0,1-16.06,16.08H385.29A16.07,16.07,0,0,1,369.21,174.48Z"/><path class="cls-4" d="M308.22,174.48V158.07h41.23a16.07,16.07,0,0,1,16.08,16.06v0.32a16.07,16.07,0,0,1-16.06,16.08H324.3A16.07,16.07,0,0,1,308.22,174.48Z"/><path class="cls-5" d="M414.62,126.73l-0.15-.29-7.29-14.34,14.32-7.27,11.09-5.65a16.07,16.07,0,0,1,21.61,7l0.15,0.29a16.07,16.07,0,0,1-7,21.61l-11.09,5.65A16.07,16.07,0,0,1,414.62,126.73Z"/><path class="cls-5" d="M364.29,152.32l-7.44-14.63,33-16.76a16.07,16.07,0,0,1,21.61,7l0.15,0.29a16.07,16.07,0,0,1-7,21.61l-18.65,9.49A16.07,16.07,0,0,1,364.29,152.32Z"/><path class="cls-5" d="M309.93,180h0a16.41,16.41,0,0,1,7.19-22.07l22.12-11.25a16.07,16.07,0,0,1,21.61,7L361,154a16.07,16.07,0,0,1-7,21.61L331.54,187A16.07,16.07,0,0,1,309.93,180Z"/><path class="cls-5" d="M286.14,123.93a29.11,29.11,0,1,1-58.22,0V94.82H257A29.11,29.11,0,0,1,286.14,123.93Z"/><path class="cls-5" d="M58.68,108.42l0.14-.29,7.12-14.42,14.4,7.12,11.16,5.5a16.07,16.07,0,0,1,7.3,21.52l-0.14.29a16.07,16.07,0,0,1-21.52,7.3L66,129.94A16.07,16.07,0,0,1,58.68,108.42Z"/><path class="cls-5" d="M101.83,129.73L109.09,115l33.16,16.38a16.07,16.07,0,0,1,7.3,21.52l-0.14.29a16.07,16.07,0,0,1-21.52,7.3l-18.77-9.26A16.07,16.07,0,0,1,101.83,129.73Z"/><path class="cls-5" d="M152.58,154.8l7.27-14.72,37,18.26a16.07,16.07,0,0,1,7.3,21.52l-0.14.29a16.07,16.07,0,0,1-21.52,7.3l-22.57-11.13A16.07,16.07,0,0,1,152.58,154.8Z"/><path class="cls-5" d="M281.8,223.06H216.19v22.38a16.07,16.07,0,0,0,16.07,16.07H281.8a16.07,16.07,0,0,0,16.07-16.07v-6.31A16.07,16.07,0,0,0,281.8,223.06Z"/><path class="cls-5" d="M290.28,158.55H206.74l7.34,46.13c2.09,10.2,9.3,13.52,18.17,13.52H281.8c8.87,0,16.08-3.32,18.17-13.52l5.16-29.8C306.46,167.11,299.16,158.55,290.28,158.55Z"/><path class="cls-5" d="M281.8,266.14H216.19v23h16.36a20.91,20.91,0,0,1,17.36,9.26,9.06,9.06,0,0,0,13.77.11A20.87,20.87,0,0,1,281,289.12h0.33a20.53,20.53,0,0,1,10.81,2.75,0.3,0.3,0,0,1,.1,0c0.49,0.23,2.48,1,4,0a3.75,3.75,0,0,0,1.61-2.39V284.8C297.87,275.93,290.67,266.14,281.8,266.14Z"/><path class="cls-5" d="M216.23,367a16.07,16.07,0,0,0,16.1,16h0.32a16.07,16.07,0,0,0,16-16.1l0-57a16.07,16.07,0,0,0-16.1-16H216.19Z"/><path class="cls-5" d="M232.55,386.59H216.19l0,64.37a16.07,16.07,0,0,0,16.1,16h0.32a16.07,16.07,0,0,0,16-16.1l0-48.27A16.07,16.07,0,0,0,232.55,386.59Z"/><path class="cls-5" d="M232.55,470.54H216.19l0,26.42a16.07,16.07,0,0,0,16.1,16h0.32a16.07,16.07,0,0,0,16-16.1l0-10.32A16.07,16.07,0,0,0,232.55,470.54Z"/><path class="cls-5" d="M281.15,383h0.32a16.07,16.07,0,0,0,16-16.1l0-57a16.07,16.07,0,0,0-16.1-16h-0.32A16.07,16.07,0,0,0,265,310l0,57A16.07,16.07,0,0,0,281.15,383Z"/><path class="cls-5" d="M281.38,386.59H265l0,64.37a16.07,16.07,0,0,0,16.1,16h0.32a16.07,16.07,0,0,0,16-16.1l0-48.27A16.07,16.07,0,0,0,281.38,386.59Z"/><path class="cls-5" d="M281.38,470.54H265l0,26.42a16.07,16.07,0,0,0,16.1,16h0.32a16.07,16.07,0,0,0,16-16.1l0-10.32A16.07,16.07,0,0,0,281.38,470.54Z"/></g></g></svg>